<?xml version="1.0" encoding="utf-8"?>
<!-- Generator: Adobe Illustrator 18.1.1, SVG Export Plug-In . SVG Version: 6.00 Build 0)  -->
<!DOCTYPE svg PUBLIC "-//W3C//DTD SVG 1.1//EN" "http://www.w3.org/Graphics/SVG/1.1/DTD/svg11.dtd">
<svg version="1.1" id="Layer_1" xmlns="http://www.w3.org/2000/svg" xmlns:xlink="http://www.w3.org/1999/xlink" x="0px" y="0px"
	 viewBox="0 0 112 112" enable-background="new 0 0 112 112" xml:space="preserve">
<g>
	<polygon points="20,44 20,42 32,38 80,38 92,42 92,44 	"/>
	<path d="M76,32L72,8c-7.9,0-10,4-16,4s-8.1-4-16-4l-4,24H76z"/>
</g>
<path d="M100,56c-6.6,0-12,5.4-12,12c0,2.2-1.8,4-4,4s-4-1.8-4-4V48c0,0-0.4,0-1,0s-1,0.8-1,3c0,2.1-0.3,4.8-1,6c-0.9,1.7-3.9,3-7,3
	c-11.1,0-9.9-12-13-12h-2c-3.1,0-1.9,12-13,12c-3.1,0-6.1-1.3-7-3c-0.7-1.2-1-3.9-1-6c0-2.2-0.4-3-1-3s-1,0-1,0v20c0,2.2-1.8,4-4,4
	s-4-1.8-4-4c0-6.6-5.4-12-12-12c-2.2,0-4,1.8-4,4s1.8,4,4,4c2.2,0,4,1.8,4,4c0,5.2,3.4,9.7,8.1,11.3c0,0.2-0.1,0.4-0.1,0.7
	c0,5.2,3.4,9.7,8.1,11.3c0,0.2-0.1,0.4-0.1,0.7c0,6.6,5.4,12,12,12s12-5.4,12-12c0,6.6,5.4,12,12,12s12-5.4,12-12
	c0-0.2,0-0.5-0.1-0.7C84.6,89.7,88,85.2,88,80c0-0.2,0-0.5-0.1-0.7C92.6,77.7,96,73.2,96,68c0-2.2,1.8-4,4-4c2.2,0,4-1.8,4-4
	S102.2,56,100,56z M36,84c-2.2,0-4-1.8-4-4c0-0.2,0-0.5-0.1-0.7C36.6,77.7,40,73.2,40,68h1l-1,12C40,82.2,38.2,84,36,84z M48,92.3
	c-0.1,2.1-1.9,3.7-4,3.7c-2.2,0-4-1.8-4-4c0-0.2,0-0.5-0.1-0.7c4.6-1.6,8-6,8.1-11.1l1-0.2L48,92.3z M72,92c0,2.2-1.8,4-4,4
	c-2.1,0-3.8-1.6-4-3.7L63,80l1,0.2c0.1,5.2,3.4,9.5,8.1,11.1C72,91.5,72,91.8,72,92z M80,80c0,2.2-1.8,4-4,4s-4-1.8-4-4l-1-12h1
	c0,5.2,3.4,9.7,8.1,11.3C80,79.5,80,79.8,80,80z"/>
</svg>
